<svg width="1014" height="220" viewBox="0 0 1014 220" fill="none" xmlns="http://www.w3.org/2000/svg">
    <rect x="35.6274" y="87.6504" width="942.746" height="131.478" fill="url(#paint0_linear_2255_8975)"/>
    <path d="M33.1096 153.391L0 85.6167C0 85.6167 309.839 0 508.37 0C706.901 0 1014 85.6167 1014 85.6167L983.631 153.391C983.631 153.391 696.408 87.0491 508.37 87.0491C320.333 87.0491 33.1096 153.391 33.1096 153.391Z"
          fill="#4D4D4D"/>
    <path d="M35.5826 164.349L2.74072 92.4276C2.74072 92.4276 310.075 16.4355 507 16.4355C703.926 16.4355 1011.26 92.4276 1011.26 92.4276L978.418 164.349C978.418 164.349 693.517 99.2126 507 99.2126C320.484 99.2126 35.5826 164.349 35.5826 164.349Z"
          fill="#2D2D2D"/>
    <path d="M487.249 134.595C490.133 134.595 491.869 136.569 491.869 139.579C491.869 142.561 490.035 144.563 487.137 144.563C484.869 144.563 483.301 143.233 482.965 141.189H484.631C484.953 142.393 485.835 143.163 487.221 143.163C488.873 143.163 489.993 142.001 490.203 140.223H486.437V138.851H490.203C489.979 137.115 488.929 135.995 487.305 135.995C485.905 135.995 485.023 136.765 484.701 137.969H483.035C483.371 135.925 484.981 134.595 487.249 134.595ZM495.049 144.479H493.439V134.679H495.049V138.795H496.687L499.655 134.679H501.503L498.045 139.397L501.713 144.479H499.767L496.701 140.223H495.049V144.479ZM502.93 144.479V134.679H506.794C508.838 134.679 510.182 135.897 510.182 137.801C510.182 139.691 508.838 140.923 506.794 140.923H504.54V144.479H502.93ZM506.668 136.079H504.54V139.523H506.654C507.802 139.523 508.544 138.851 508.544 137.801C508.544 136.737 507.816 136.079 506.668 136.079ZM511.349 144.479H509.683L513.351 134.679H515.269L518.923 144.479H517.201L516.277 142.057H512.259L511.349 144.479ZM514.261 136.415L512.707 140.685H515.829L514.261 136.415ZM520.067 144.479V134.679H521.677V138.795H526.227V134.679H527.837V144.479H526.227V140.223H521.677V144.479H520.067Z"
          fill="white"/>
    <defs>
        <linearGradient id="paint0_linear_2255_8975" x1="507.001" y1="219.129" x2="507.001" y2="87.6504"
                        gradientUnits="userSpaceOnUse">
            <stop stop-color="white" stop-opacity="0"/>
            <stop offset="1" stop-color="white" stop-opacity="0.4"/>
        </linearGradient>
    </defs>
</svg>
