<svg width="260" height="44" viewBox="0 0 260 44" fill="none" xmlns="http://www.w3.org/2000/svg">
<g clip-path="url(#clip0_1386_1774)">
<path d="M0 9.10782C0 8.33232 0.409991 7.61408 1.07911 7.21742L9.91499 1.97931C11.3874 1.10641 13.2538 2.16315 13.2538 3.86976V40.1302C13.2538 41.8368 11.3874 42.8936 9.91499 42.0207L1.07912 36.7826C0.409992 36.3859 0 35.6677 0 34.8921V9.10782Z" fill="#C61F1F"/>
<path d="M18.7754 9.31912C18.7754 8.43335 19.3087 7.63398 20.1287 7.29089L34.4869 1.28247C35.9427 0.673272 37.5516 1.73803 37.5516 3.31071V40.6894C37.5516 42.262 35.9427 43.3268 34.4869 42.7176L20.1287 36.7092C19.3087 36.3661 18.7754 35.5667 18.7754 34.6809V9.31912Z" fill="#C61F1F"/>
<path d="M43.0729 9.4559C43.0729 8.50258 43.6894 7.65778 44.5997 7.36342L64.4796 0.934832C65.9066 0.473351 67.3705 1.5329 67.3705 3.02731V40.9726C67.3705 42.467 65.9066 43.5266 64.4796 43.0651L44.5997 36.6365C43.6894 36.3422 43.0729 35.4974 43.0729 34.544V9.4559Z" fill="#C61F1F"/>
</g>
<path d="M234.731 35.2166V8.63672H241.734V19.0408L250.905 8.63672H259.391L249.497 19.6864L260 35.2166H251.552L244.588 24.7365L241.734 27.9261V35.2166H234.731Z" fill="#C61F1F"/>
<path d="M219.575 35.4446C211.546 35.4446 206.713 30.1286 206.713 21.9268C206.713 13.725 211.698 8.40906 219.956 8.40906C226.501 8.40906 231.068 12.6239 231.563 18.5474H224.561C224.066 16.0033 222.315 14.1807 219.575 14.1807C215.922 14.1807 213.867 17.3703 213.867 21.9268C213.867 26.4834 215.922 29.673 219.575 29.673C222.315 29.673 224.066 27.8504 224.561 25.3063H231.563C231.068 31.2298 226.349 35.4446 219.575 35.4446Z" fill="#C61F1F"/>
<path d="M195.62 35.2166V8.63672H202.622V35.2166H195.62Z" fill="#C61F1F"/>
<path d="M170.884 14.5602V8.63672H192.271V14.5602H185.078V35.2166H178.076V14.5602H170.884Z" fill="#C61F1F"/>
<path d="M135.013 35.2166H116.366V8.63672H123.368V29.2931H135.013V35.2166Z" fill="#C61F1F"/>
<path d="M104.288 35.2166V8.63672H111.29V35.2166H104.288Z" fill="#C61F1F"/>
<path d="M79.7421 35.2166V8.63672H90.2834C96.6766 8.63672 100.482 11.1428 100.482 15.6614C100.482 19.1548 98.351 21.0913 95.0022 21.5849C98.9219 22.0026 101.357 23.9012 101.357 27.6603C101.357 32.2928 97.5519 35.2166 90.8542 35.2166H79.7421ZM90.3975 13.9147H86.7443V19.2307H90.3975C92.3383 19.2307 93.48 18.1675 93.48 16.5727C93.48 14.9779 92.3383 13.9147 90.3975 13.9147ZM90.9303 24.4328H86.7443V29.9006H90.9303C92.9472 29.9006 94.165 28.8754 94.165 27.1667C94.165 25.458 92.9472 24.4328 90.9303 24.4328Z" fill="#C61F1F"/>
<path d="M138.537 10.9572C138.537 10.2 139.176 9.58606 139.964 9.58606H165.651C166.439 9.58606 167.078 10.2 167.078 10.9572V18.4988C165.108 18.4988 163.511 20.0335 163.511 21.9267C163.511 23.8199 165.108 25.3547 167.078 25.3547V32.8962C167.078 33.6535 166.439 34.2674 165.651 34.2674H139.964C139.176 34.2674 138.537 33.6535 138.537 32.8962V10.9572ZM147.221 31.525C147.515 30.7262 148.308 30.1538 149.24 30.1538C150.172 30.1538 150.965 30.7262 151.259 31.525H164.224V27.4556C162.11 26.446 160.657 24.3493 160.657 21.9267C160.657 19.504 162.11 17.4074 164.224 16.3978V12.3284H151.259C150.965 13.1273 150.172 13.6996 149.24 13.6996C148.308 13.6996 147.515 13.1273 147.221 12.3284H141.391V31.525H147.221Z" fill="#C61F1F"/>
<path fill-rule="evenodd" clip-rule="evenodd" d="M168.303 19.7209H167.078C165.741 19.7209 164.736 20.7515 164.736 21.9267C164.736 23.1018 165.741 24.1324 167.078 24.1324H168.303V32.8961C168.303 34.3715 167.072 35.4895 165.651 35.4895H139.964C138.544 35.4895 137.312 34.3715 137.312 32.8961V10.9572C137.312 9.4818 138.544 8.36377 139.964 8.36377H165.651C167.072 8.36377 168.303 9.48181 168.303 10.9572V19.7209ZM167.078 25.3546V32.8961C167.078 33.6534 166.439 34.2673 165.651 34.2673H139.964C139.176 34.2673 138.537 33.6534 138.537 32.8961V10.9572C138.537 10.1999 139.176 9.58599 139.964 9.58599H165.651C166.439 9.58599 167.078 10.1999 167.078 10.9572V18.4987C165.108 18.4987 163.511 20.0335 163.511 21.9267C163.511 23.8199 165.108 25.3546 167.078 25.3546ZM146.502 30.3027C147.119 29.4638 148.125 28.9315 149.24 28.9315C150.355 28.9315 151.361 29.4638 151.978 30.3027H162.999V28.1805C160.87 26.8793 159.432 24.5764 159.432 21.9267C159.432 19.2768 160.87 16.974 162.999 15.6728V13.5506H151.978C151.361 14.3895 150.355 14.9218 149.24 14.9218C148.125 14.9218 147.119 14.3895 146.502 13.5506H142.616V30.3027H146.502ZM147.221 31.5249C147.515 30.7261 148.308 30.1538 149.24 30.1538C150.172 30.1538 150.965 30.7261 151.259 31.5249H164.224V27.4555C162.11 26.4459 160.657 24.3493 160.657 21.9267C160.657 19.5039 162.11 17.4074 164.224 16.3977V12.3284H151.259C150.965 13.1272 150.172 13.6995 149.24 13.6995C148.308 13.6995 147.515 13.1272 147.221 12.3284H141.391V31.5249H147.221Z" fill="#C61F1F"/>
<defs>
<clipPath id="clip0_1386_1774">
<rect width="67.3705" height="44" fill="white"/>
</clipPath>
</defs>
</svg>
